<mxfile host="app.diagrams.net" modified="2021-08-29T15:12:26.784Z" agent="5.0 (Windows NT 10.0; Win64; x64) AppleWebKit/537.36 (KHTML, like Gecko) Chrome/92.0.4515.159 Safari/537.36" etag="pnaied31IsJTrKp4ld-j" version="14.9.9" type="github">
  <diagram name="Page-1" id="a7904f86-f2b4-8e86-fa97-74104820619b">
    <mxGraphModel dx="868" dy="442" grid="1" gridSize="10" guides="1" tooltips="1" connect="1" arrows="1" fold="1" page="1" pageScale="1" pageWidth="1100" pageHeight="850" background="none" math="0" shadow="0">
      <root>
        <mxCell id="0" />
        <mxCell id="1" parent="0" />
        <mxCell id="24794b860abc3c2d-43" style="edgeStyle=orthogonalEdgeStyle;rounded=0;html=1;exitX=1;exitY=0.75;entryX=0;entryY=0.25;labelBackgroundColor=none;endArrow=none;endFill=0;endSize=8;fontFamily=Verdana;fontSize=12;align=left;" parent="1" target="24794b860abc3c2d-29" edge="1">
          <mxGeometry relative="1" as="geometry">
            <mxPoint x="910" y="282.5" as="sourcePoint" />
          </mxGeometry>
        </mxCell>
        <mxCell id="24794b860abc3c2d-29" value="&lt;p style=&quot;margin: 0px ; margin-top: 4px ; text-align: center ; text-decoration: underline&quot;&gt;&lt;b&gt;Object:Type&lt;/b&gt;&lt;/p&gt;&lt;hr&gt;&lt;p style=&quot;margin: 0px ; margin-left: 8px&quot;&gt;field1 = value1&lt;br&gt;field2 = value2&lt;br&gt;field3 = value3&lt;/p&gt;&lt;p style=&quot;margin: 0px ; margin-left: 8px&quot;&gt;field4 = value4&lt;br&gt;&lt;/p&gt;&lt;p style=&quot;margin: 0px ; margin-left: 8px&quot;&gt;field5 = value5&lt;br&gt;&lt;/p&gt;&lt;p style=&quot;margin: 0px ; margin-left: 8px&quot;&gt;field6 = value6&lt;br&gt;&lt;/p&gt;&lt;p style=&quot;margin: 0px ; margin-left: 8px&quot;&gt;field7 = value7&lt;br&gt;&lt;/p&gt;&lt;p style=&quot;margin: 0px ; margin-left: 8px&quot;&gt;field8 = value8&lt;br&gt;&lt;/p&gt;&lt;p style=&quot;margin: 0px ; margin-left: 8px&quot;&gt;field9 = value9&lt;br&gt;&lt;/p&gt;&lt;p style=&quot;margin: 0px ; margin-left: 8px&quot;&gt;field10 = value10&lt;br&gt;&lt;/p&gt;&lt;p style=&quot;margin: 0px ; margin-left: 8px&quot;&gt;field11 = value11&lt;br&gt;&lt;/p&gt;&lt;p style=&quot;margin: 0px ; margin-left: 8px&quot;&gt;field12 = value12&lt;/p&gt;" style="verticalAlign=top;align=left;overflow=fill;fontSize=12;fontFamily=Helvetica;html=1;rounded=0;shadow=0;comic=0;labelBackgroundColor=none;strokeWidth=1" parent="1" vertex="1">
          <mxGeometry x="940" y="285" width="140" height="200" as="geometry" />
        </mxCell>
        <mxCell id="gxLRlEJXZUWJewwi8tyI-14" value="Customer" style="shape=table;startSize=30;container=1;collapsible=1;childLayout=tableLayout;fixedRows=1;rowLines=0;fontStyle=1;align=center;resizeLast=1;" vertex="1" parent="1">
          <mxGeometry x="120" y="90" width="180" height="220" as="geometry" />
        </mxCell>
        <mxCell id="gxLRlEJXZUWJewwi8tyI-15" value="" style="shape=partialRectangle;collapsible=0;dropTarget=0;pointerEvents=0;fillColor=none;top=0;left=0;bottom=0;right=0;points=[[0,0.5],[1,0.5]];portConstraint=eastwest;" vertex="1" parent="gxLRlEJXZUWJewwi8tyI-14">
          <mxGeometry y="30" width="180" height="30" as="geometry" />
        </mxCell>
        <mxCell id="gxLRlEJXZUWJewwi8tyI-16" value="PK" style="shape=partialRectangle;connectable=0;fillColor=none;top=0;left=0;bottom=0;right=0;fontStyle=1;overflow=hidden;" vertex="1" parent="gxLRlEJXZUWJewwi8tyI-15">
          <mxGeometry width="60" height="30" as="geometry" />
        </mxCell>
        <mxCell id="gxLRlEJXZUWJewwi8tyI-17" value="Customer ID" style="shape=partialRectangle;connectable=0;fillColor=none;top=0;left=0;bottom=0;right=0;align=left;spacingLeft=6;fontStyle=5;overflow=hidden;" vertex="1" parent="gxLRlEJXZUWJewwi8tyI-15">
          <mxGeometry x="60" width="120" height="30" as="geometry" />
        </mxCell>
        <mxCell id="gxLRlEJXZUWJewwi8tyI-21" value="" style="shape=partialRectangle;collapsible=0;dropTarget=0;pointerEvents=0;fillColor=none;top=0;left=0;bottom=0;right=0;points=[[0,0.5],[1,0.5]];portConstraint=eastwest;" vertex="1" parent="gxLRlEJXZUWJewwi8tyI-14">
          <mxGeometry y="60" width="180" height="80" as="geometry" />
        </mxCell>
        <mxCell id="gxLRlEJXZUWJewwi8tyI-22" value="" style="shape=partialRectangle;connectable=0;fillColor=none;top=0;left=0;bottom=0;right=0;editable=1;overflow=hidden;" vertex="1" parent="gxLRlEJXZUWJewwi8tyI-21">
          <mxGeometry width="60" height="80" as="geometry" />
        </mxCell>
        <mxCell id="gxLRlEJXZUWJewwi8tyI-23" value="" style="shape=partialRectangle;connectable=0;fillColor=none;top=0;left=0;bottom=0;right=0;align=left;spacingLeft=6;overflow=hidden;" vertex="1" parent="gxLRlEJXZUWJewwi8tyI-21">
          <mxGeometry x="60" width="120" height="80" as="geometry" />
        </mxCell>
        <mxCell id="gxLRlEJXZUWJewwi8tyI-24" value="" style="shape=partialRectangle;collapsible=0;dropTarget=0;pointerEvents=0;fillColor=none;top=0;left=0;bottom=0;right=0;points=[[0,0.5],[1,0.5]];portConstraint=eastwest;" vertex="1" parent="gxLRlEJXZUWJewwi8tyI-14">
          <mxGeometry y="140" width="180" height="30" as="geometry" />
        </mxCell>
        <mxCell id="gxLRlEJXZUWJewwi8tyI-25" value="" style="shape=partialRectangle;connectable=0;fillColor=none;top=0;left=0;bottom=0;right=0;editable=1;overflow=hidden;" vertex="1" parent="gxLRlEJXZUWJewwi8tyI-24">
          <mxGeometry width="60" height="30" as="geometry" />
        </mxCell>
        <mxCell id="gxLRlEJXZUWJewwi8tyI-26" value="Address" style="shape=partialRectangle;connectable=0;fillColor=none;top=0;left=0;bottom=0;right=0;align=left;spacingLeft=6;overflow=hidden;" vertex="1" parent="gxLRlEJXZUWJewwi8tyI-24">
          <mxGeometry x="60" width="120" height="30" as="geometry" />
        </mxCell>
        <mxCell id="gxLRlEJXZUWJewwi8tyI-31" value="Full Name" style="text;strokeColor=none;fillColor=none;spacingLeft=4;spacingRight=4;overflow=hidden;rotatable=0;points=[[0,0.5],[1,0.5]];portConstraint=eastwest;fontSize=12;align=left;" vertex="1" parent="1">
          <mxGeometry x="180" y="180" width="140" height="30" as="geometry" />
        </mxCell>
        <mxCell id="gxLRlEJXZUWJewwi8tyI-33" value="Contact" style="text;strokeColor=none;fillColor=none;spacingLeft=4;spacingRight=4;overflow=hidden;rotatable=0;points=[[0,0.5],[1,0.5]];portConstraint=eastwest;fontSize=12;align=left;" vertex="1" parent="1">
          <mxGeometry x="180" y="270" width="110" height="30" as="geometry" />
        </mxCell>
        <mxCell id="gxLRlEJXZUWJewwi8tyI-34" value="Vehicle" style="shape=table;startSize=30;container=1;collapsible=1;childLayout=tableLayout;fixedRows=1;rowLines=0;fontStyle=1;align=center;resizeLast=1;fontColor=#000000;" vertex="1" parent="1">
          <mxGeometry x="500" y="80" width="180" height="290" as="geometry" />
        </mxCell>
        <mxCell id="gxLRlEJXZUWJewwi8tyI-35" value="" style="shape=partialRectangle;collapsible=0;dropTarget=0;pointerEvents=0;fillColor=none;top=0;left=0;bottom=1;right=0;points=[[0,0.5],[1,0.5]];portConstraint=eastwest;" vertex="1" parent="gxLRlEJXZUWJewwi8tyI-34">
          <mxGeometry y="30" width="180" height="30" as="geometry" />
        </mxCell>
        <mxCell id="gxLRlEJXZUWJewwi8tyI-36" value="PK" style="shape=partialRectangle;connectable=0;fillColor=none;top=0;left=0;bottom=0;right=0;fontStyle=1;overflow=hidden;" vertex="1" parent="gxLRlEJXZUWJewwi8tyI-35">
          <mxGeometry width="30" height="30" as="geometry" />
        </mxCell>
        <mxCell id="gxLRlEJXZUWJewwi8tyI-37" value="Vehicle ID" style="shape=partialRectangle;connectable=0;fillColor=none;top=0;left=0;bottom=0;right=0;align=left;spacingLeft=6;fontStyle=5;overflow=hidden;" vertex="1" parent="gxLRlEJXZUWJewwi8tyI-35">
          <mxGeometry x="30" width="150" height="30" as="geometry" />
        </mxCell>
        <mxCell id="gxLRlEJXZUWJewwi8tyI-38" value="" style="shape=partialRectangle;collapsible=0;dropTarget=0;pointerEvents=0;fillColor=none;top=0;left=0;bottom=0;right=0;points=[[0,0.5],[1,0.5]];portConstraint=eastwest;" vertex="1" parent="gxLRlEJXZUWJewwi8tyI-34">
          <mxGeometry y="60" width="180" height="30" as="geometry" />
        </mxCell>
        <mxCell id="gxLRlEJXZUWJewwi8tyI-39" value="" style="shape=partialRectangle;connectable=0;fillColor=none;top=0;left=0;bottom=0;right=0;editable=1;overflow=hidden;" vertex="1" parent="gxLRlEJXZUWJewwi8tyI-38">
          <mxGeometry width="30" height="30" as="geometry" />
        </mxCell>
        <mxCell id="gxLRlEJXZUWJewwi8tyI-40" value="Title" style="shape=partialRectangle;connectable=0;fillColor=none;top=0;left=0;bottom=0;right=0;align=left;spacingLeft=6;overflow=hidden;" vertex="1" parent="gxLRlEJXZUWJewwi8tyI-38">
          <mxGeometry x="30" width="150" height="30" as="geometry" />
        </mxCell>
        <mxCell id="gxLRlEJXZUWJewwi8tyI-41" value="" style="shape=partialRectangle;collapsible=0;dropTarget=0;pointerEvents=0;fillColor=none;top=0;left=0;bottom=0;right=0;points=[[0,0.5],[1,0.5]];portConstraint=eastwest;" vertex="1" parent="gxLRlEJXZUWJewwi8tyI-34">
          <mxGeometry y="90" width="180" height="30" as="geometry" />
        </mxCell>
        <mxCell id="gxLRlEJXZUWJewwi8tyI-42" value="" style="shape=partialRectangle;connectable=0;fillColor=none;top=0;left=0;bottom=0;right=0;editable=1;overflow=hidden;" vertex="1" parent="gxLRlEJXZUWJewwi8tyI-41">
          <mxGeometry width="30" height="30" as="geometry" />
        </mxCell>
        <mxCell id="gxLRlEJXZUWJewwi8tyI-43" value="Brand" style="shape=partialRectangle;connectable=0;fillColor=none;top=0;left=0;bottom=0;right=0;align=left;spacingLeft=6;overflow=hidden;" vertex="1" parent="gxLRlEJXZUWJewwi8tyI-41">
          <mxGeometry x="30" width="150" height="30" as="geometry" />
        </mxCell>
        <mxCell id="gxLRlEJXZUWJewwi8tyI-44" value="" style="shape=partialRectangle;collapsible=0;dropTarget=0;pointerEvents=0;fillColor=none;top=0;left=0;bottom=0;right=0;points=[[0,0.5],[1,0.5]];portConstraint=eastwest;" vertex="1" parent="gxLRlEJXZUWJewwi8tyI-34">
          <mxGeometry y="120" width="180" height="30" as="geometry" />
        </mxCell>
        <mxCell id="gxLRlEJXZUWJewwi8tyI-45" value="" style="shape=partialRectangle;connectable=0;fillColor=none;top=0;left=0;bottom=0;right=0;editable=1;overflow=hidden;" vertex="1" parent="gxLRlEJXZUWJewwi8tyI-44">
          <mxGeometry width="30" height="30" as="geometry" />
        </mxCell>
        <mxCell id="gxLRlEJXZUWJewwi8tyI-46" value="Price per Day" style="shape=partialRectangle;connectable=0;fillColor=none;top=0;left=0;bottom=0;right=0;align=left;spacingLeft=6;overflow=hidden;" vertex="1" parent="gxLRlEJXZUWJewwi8tyI-44">
          <mxGeometry x="30" width="150" height="30" as="geometry" />
        </mxCell>
        <mxCell id="gxLRlEJXZUWJewwi8tyI-47" value="Fuel Type" style="shape=partialRectangle;connectable=0;fillColor=none;top=0;left=0;bottom=0;right=0;align=left;spacingLeft=6;overflow=hidden;" vertex="1" parent="1">
          <mxGeometry x="530" y="230" width="150" height="30" as="geometry" />
        </mxCell>
        <mxCell id="gxLRlEJXZUWJewwi8tyI-48" value="Model" style="shape=partialRectangle;connectable=0;fillColor=none;top=0;left=0;bottom=0;right=0;align=left;spacingLeft=6;overflow=hidden;" vertex="1" parent="1">
          <mxGeometry x="530" y="260" width="150" height="30" as="geometry" />
        </mxCell>
        <mxCell id="gxLRlEJXZUWJewwi8tyI-49" value="Seat capacity" style="shape=partialRectangle;connectable=0;fillColor=none;top=0;left=0;bottom=0;right=0;align=left;spacingLeft=6;overflow=hidden;" vertex="1" parent="1">
          <mxGeometry x="530" y="290" width="150" height="30" as="geometry" />
        </mxCell>
        <mxCell id="gxLRlEJXZUWJewwi8tyI-50" value="Image URL/path" style="shape=partialRectangle;connectable=0;fillColor=none;top=0;left=0;bottom=0;right=0;align=left;spacingLeft=6;overflow=hidden;" vertex="1" parent="1">
          <mxGeometry x="530" y="320" width="150" height="30" as="geometry" />
        </mxCell>
        <mxCell id="gxLRlEJXZUWJewwi8tyI-94" style="edgeStyle=orthogonalEdgeStyle;rounded=0;orthogonalLoop=1;jettySize=auto;html=1;entryX=0;entryY=0.5;entryDx=0;entryDy=0;fontColor=#000000;" edge="1" parent="1" source="gxLRlEJXZUWJewwi8tyI-64" target="gxLRlEJXZUWJewwi8tyI-35">
          <mxGeometry relative="1" as="geometry" />
        </mxCell>
        <mxCell id="gxLRlEJXZUWJewwi8tyI-64" value="Booking" style="shape=table;startSize=30;container=1;collapsible=1;childLayout=tableLayout;fixedRows=1;rowLines=0;fontStyle=1;align=center;resizeLast=1;fontColor=#000000;" vertex="1" parent="1">
          <mxGeometry x="230" y="345" width="180" height="245" as="geometry" />
        </mxCell>
        <mxCell id="gxLRlEJXZUWJewwi8tyI-65" value="" style="shape=partialRectangle;collapsible=0;dropTarget=0;pointerEvents=0;fillColor=none;top=0;left=0;bottom=0;right=0;points=[[0,0.5],[1,0.5]];portConstraint=eastwest;" vertex="1" parent="gxLRlEJXZUWJewwi8tyI-64">
          <mxGeometry y="30" width="180" height="30" as="geometry" />
        </mxCell>
        <mxCell id="gxLRlEJXZUWJewwi8tyI-66" value="PK,FK1" style="shape=partialRectangle;connectable=0;fillColor=none;top=0;left=0;bottom=0;right=0;fontStyle=1;overflow=hidden;" vertex="1" parent="gxLRlEJXZUWJewwi8tyI-65">
          <mxGeometry width="60" height="30" as="geometry" />
        </mxCell>
        <mxCell id="gxLRlEJXZUWJewwi8tyI-67" value="customer ID" style="shape=partialRectangle;connectable=0;fillColor=none;top=0;left=0;bottom=0;right=0;align=left;spacingLeft=6;fontStyle=5;overflow=hidden;" vertex="1" parent="gxLRlEJXZUWJewwi8tyI-65">
          <mxGeometry x="60" width="120" height="30" as="geometry" />
        </mxCell>
        <mxCell id="gxLRlEJXZUWJewwi8tyI-68" value="" style="shape=partialRectangle;collapsible=0;dropTarget=0;pointerEvents=0;fillColor=none;top=0;left=0;bottom=1;right=0;points=[[0,0.5],[1,0.5]];portConstraint=eastwest;" vertex="1" parent="gxLRlEJXZUWJewwi8tyI-64">
          <mxGeometry y="60" width="180" height="30" as="geometry" />
        </mxCell>
        <mxCell id="gxLRlEJXZUWJewwi8tyI-69" value="PK,FK2" style="shape=partialRectangle;connectable=0;fillColor=none;top=0;left=0;bottom=0;right=0;fontStyle=1;overflow=hidden;" vertex="1" parent="gxLRlEJXZUWJewwi8tyI-68">
          <mxGeometry width="60" height="30" as="geometry" />
        </mxCell>
        <mxCell id="gxLRlEJXZUWJewwi8tyI-70" value="Vehicle ID" style="shape=partialRectangle;connectable=0;fillColor=none;top=0;left=0;bottom=0;right=0;align=left;spacingLeft=6;fontStyle=5;overflow=hidden;" vertex="1" parent="gxLRlEJXZUWJewwi8tyI-68">
          <mxGeometry x="60" width="120" height="30" as="geometry" />
        </mxCell>
        <mxCell id="gxLRlEJXZUWJewwi8tyI-71" value="" style="shape=partialRectangle;collapsible=0;dropTarget=0;pointerEvents=0;fillColor=none;top=0;left=0;bottom=0;right=0;points=[[0,0.5],[1,0.5]];portConstraint=eastwest;" vertex="1" parent="gxLRlEJXZUWJewwi8tyI-64">
          <mxGeometry y="90" width="180" height="30" as="geometry" />
        </mxCell>
        <mxCell id="gxLRlEJXZUWJewwi8tyI-72" value="" style="shape=partialRectangle;connectable=0;fillColor=none;top=0;left=0;bottom=0;right=0;editable=1;overflow=hidden;" vertex="1" parent="gxLRlEJXZUWJewwi8tyI-71">
          <mxGeometry width="60" height="30" as="geometry" />
        </mxCell>
        <mxCell id="gxLRlEJXZUWJewwi8tyI-73" value="From Date" style="shape=partialRectangle;connectable=0;fillColor=none;top=0;left=0;bottom=0;right=0;align=left;spacingLeft=6;overflow=hidden;" vertex="1" parent="gxLRlEJXZUWJewwi8tyI-71">
          <mxGeometry x="60" width="120" height="30" as="geometry" />
        </mxCell>
        <mxCell id="gxLRlEJXZUWJewwi8tyI-74" value="" style="shape=partialRectangle;collapsible=0;dropTarget=0;pointerEvents=0;fillColor=none;top=0;left=0;bottom=0;right=0;points=[[0,0.5],[1,0.5]];portConstraint=eastwest;" vertex="1" parent="gxLRlEJXZUWJewwi8tyI-64">
          <mxGeometry y="120" width="180" height="30" as="geometry" />
        </mxCell>
        <mxCell id="gxLRlEJXZUWJewwi8tyI-75" value="" style="shape=partialRectangle;connectable=0;fillColor=none;top=0;left=0;bottom=0;right=0;editable=1;overflow=hidden;" vertex="1" parent="gxLRlEJXZUWJewwi8tyI-74">
          <mxGeometry width="60" height="30" as="geometry" />
        </mxCell>
        <mxCell id="gxLRlEJXZUWJewwi8tyI-76" value="To Date" style="shape=partialRectangle;connectable=0;fillColor=none;top=0;left=0;bottom=0;right=0;align=left;spacingLeft=6;overflow=hidden;" vertex="1" parent="gxLRlEJXZUWJewwi8tyI-74">
          <mxGeometry x="60" width="120" height="30" as="geometry" />
        </mxCell>
        <mxCell id="gxLRlEJXZUWJewwi8tyI-95" style="edgeStyle=orthogonalEdgeStyle;rounded=0;orthogonalLoop=1;jettySize=auto;html=1;entryX=0;entryY=0.5;entryDx=0;entryDy=0;fontColor=#000000;" edge="1" parent="1" source="gxLRlEJXZUWJewwi8tyI-65" target="gxLRlEJXZUWJewwi8tyI-15">
          <mxGeometry relative="1" as="geometry" />
        </mxCell>
        <mxCell id="gxLRlEJXZUWJewwi8tyI-96" value="Request Date" style="text;html=1;resizable=0;autosize=1;align=center;verticalAlign=middle;points=[];fillColor=none;strokeColor=none;rounded=0;fontColor=#000000;" vertex="1" parent="1">
          <mxGeometry x="290" y="500" width="90" height="20" as="geometry" />
        </mxCell>
        <mxCell id="gxLRlEJXZUWJewwi8tyI-97" value="Status" style="text;strokeColor=none;fillColor=none;spacingLeft=4;spacingRight=4;overflow=hidden;rotatable=0;points=[[0,0.5],[1,0.5]];portConstraint=eastwest;fontSize=12;fontColor=#000000;align=left;" vertex="1" parent="1">
          <mxGeometry x="290" y="530" width="110" height="30" as="geometry" />
        </mxCell>
        <mxCell id="gxLRlEJXZUWJewwi8tyI-98" value="Action" style="text;strokeColor=none;fillColor=none;spacingLeft=4;spacingRight=4;overflow=hidden;rotatable=0;points=[[0,0.5],[1,0.5]];portConstraint=eastwest;fontSize=12;fontColor=#000000;align=left;" vertex="1" parent="1">
          <mxGeometry x="290" y="560" width="105" height="30" as="geometry" />
        </mxCell>
        <mxCell id="gxLRlEJXZUWJewwi8tyI-103" value="Account" style="shape=table;startSize=30;container=1;collapsible=1;childLayout=tableLayout;fixedRows=1;rowLines=0;fontStyle=1;align=center;resizeLast=1;fontColor=#000000;" vertex="1" parent="1">
          <mxGeometry x="500" y="400" width="180" height="160" as="geometry" />
        </mxCell>
        <mxCell id="gxLRlEJXZUWJewwi8tyI-104" value="" style="shape=partialRectangle;collapsible=0;dropTarget=0;pointerEvents=0;fillColor=none;top=0;left=0;bottom=1;right=0;points=[[0,0.5],[1,0.5]];portConstraint=eastwest;" vertex="1" parent="gxLRlEJXZUWJewwi8tyI-103">
          <mxGeometry y="30" width="180" height="30" as="geometry" />
        </mxCell>
        <mxCell id="gxLRlEJXZUWJewwi8tyI-105" value="PK" style="shape=partialRectangle;connectable=0;fillColor=none;top=0;left=0;bottom=0;right=0;fontStyle=1;overflow=hidden;" vertex="1" parent="gxLRlEJXZUWJewwi8tyI-104">
          <mxGeometry width="30" height="30" as="geometry" />
        </mxCell>
        <mxCell id="gxLRlEJXZUWJewwi8tyI-106" value="acc ID" style="shape=partialRectangle;connectable=0;fillColor=none;top=0;left=0;bottom=0;right=0;align=left;spacingLeft=6;fontStyle=5;overflow=hidden;" vertex="1" parent="gxLRlEJXZUWJewwi8tyI-104">
          <mxGeometry x="30" width="150" height="30" as="geometry" />
        </mxCell>
        <mxCell id="gxLRlEJXZUWJewwi8tyI-107" value="" style="shape=partialRectangle;collapsible=0;dropTarget=0;pointerEvents=0;fillColor=none;top=0;left=0;bottom=0;right=0;points=[[0,0.5],[1,0.5]];portConstraint=eastwest;" vertex="1" parent="gxLRlEJXZUWJewwi8tyI-103">
          <mxGeometry y="60" width="180" height="30" as="geometry" />
        </mxCell>
        <mxCell id="gxLRlEJXZUWJewwi8tyI-108" value="" style="shape=partialRectangle;connectable=0;fillColor=none;top=0;left=0;bottom=0;right=0;editable=1;overflow=hidden;" vertex="1" parent="gxLRlEJXZUWJewwi8tyI-107">
          <mxGeometry width="30" height="30" as="geometry" />
        </mxCell>
        <mxCell id="gxLRlEJXZUWJewwi8tyI-109" value="User Name" style="shape=partialRectangle;connectable=0;fillColor=none;top=0;left=0;bottom=0;right=0;align=left;spacingLeft=6;overflow=hidden;" vertex="1" parent="gxLRlEJXZUWJewwi8tyI-107">
          <mxGeometry x="30" width="150" height="30" as="geometry" />
        </mxCell>
        <mxCell id="gxLRlEJXZUWJewwi8tyI-110" value="" style="shape=partialRectangle;collapsible=0;dropTarget=0;pointerEvents=0;fillColor=none;top=0;left=0;bottom=0;right=0;points=[[0,0.5],[1,0.5]];portConstraint=eastwest;" vertex="1" parent="gxLRlEJXZUWJewwi8tyI-103">
          <mxGeometry y="90" width="180" height="30" as="geometry" />
        </mxCell>
        <mxCell id="gxLRlEJXZUWJewwi8tyI-111" value="" style="shape=partialRectangle;connectable=0;fillColor=none;top=0;left=0;bottom=0;right=0;editable=1;overflow=hidden;" vertex="1" parent="gxLRlEJXZUWJewwi8tyI-110">
          <mxGeometry width="30" height="30" as="geometry" />
        </mxCell>
        <mxCell id="gxLRlEJXZUWJewwi8tyI-112" value="Email" style="shape=partialRectangle;connectable=0;fillColor=none;top=0;left=0;bottom=0;right=0;align=left;spacingLeft=6;overflow=hidden;" vertex="1" parent="gxLRlEJXZUWJewwi8tyI-110">
          <mxGeometry x="30" width="150" height="30" as="geometry" />
        </mxCell>
        <mxCell id="gxLRlEJXZUWJewwi8tyI-113" value="" style="shape=partialRectangle;collapsible=0;dropTarget=0;pointerEvents=0;fillColor=none;top=0;left=0;bottom=0;right=0;points=[[0,0.5],[1,0.5]];portConstraint=eastwest;" vertex="1" parent="gxLRlEJXZUWJewwi8tyI-103">
          <mxGeometry y="120" width="180" height="30" as="geometry" />
        </mxCell>
        <mxCell id="gxLRlEJXZUWJewwi8tyI-114" value="" style="shape=partialRectangle;connectable=0;fillColor=none;top=0;left=0;bottom=0;right=0;editable=1;overflow=hidden;" vertex="1" parent="gxLRlEJXZUWJewwi8tyI-113">
          <mxGeometry width="30" height="30" as="geometry" />
        </mxCell>
        <mxCell id="gxLRlEJXZUWJewwi8tyI-115" value="Password" style="shape=partialRectangle;connectable=0;fillColor=none;top=0;left=0;bottom=0;right=0;align=left;spacingLeft=6;overflow=hidden;" vertex="1" parent="gxLRlEJXZUWJewwi8tyI-113">
          <mxGeometry x="30" width="150" height="30" as="geometry" />
        </mxCell>
      </root>
    </mxGraphModel>
  </diagram>
</mxfile>
